<mxfile host="app.diagrams.net" modified="2023-10-25T17:35:33.070Z" agent="Mozilla/5.0 (Windows NT 10.0; Win64; x64) AppleWebKit/537.36 (KHTML, like Gecko) Chrome/118.0.0.0 Safari/537.36" etag="c97PDvpKO2TEg214MzVb" version="22.0.7" type="github">
  <diagram id="C5RBs43oDa-KdzZeNtuy" name="Page-1">
    <mxGraphModel dx="880" dy="456" grid="1" gridSize="10" guides="1" tooltips="1" connect="1" arrows="1" fold="1" page="1" pageScale="1" pageWidth="827" pageHeight="1169" math="0" shadow="0">
      <root>
        <mxCell id="WIyWlLk6GJQsqaUBKTNV-0" />
        <mxCell id="WIyWlLk6GJQsqaUBKTNV-1" parent="WIyWlLk6GJQsqaUBKTNV-0" />
        <mxCell id="vBo10i9JRaUlVTrbkvmx-9" style="edgeStyle=orthogonalEdgeStyle;rounded=0;orthogonalLoop=1;jettySize=auto;html=1;entryX=0.5;entryY=0;entryDx=0;entryDy=0;" edge="1" parent="WIyWlLk6GJQsqaUBKTNV-1" source="vBo10i9JRaUlVTrbkvmx-0" target="vBo10i9JRaUlVTrbkvmx-1">
          <mxGeometry relative="1" as="geometry" />
        </mxCell>
        <mxCell id="vBo10i9JRaUlVTrbkvmx-0" value="MULAI" style="strokeWidth=2;html=1;shape=mxgraph.flowchart.start_1;whiteSpace=wrap;" vertex="1" parent="WIyWlLk6GJQsqaUBKTNV-1">
          <mxGeometry x="220" y="80" width="100" height="60" as="geometry" />
        </mxCell>
        <mxCell id="vBo10i9JRaUlVTrbkvmx-10" style="edgeStyle=orthogonalEdgeStyle;rounded=0;orthogonalLoop=1;jettySize=auto;html=1;exitX=0.5;exitY=1;exitDx=0;exitDy=0;entryX=0.5;entryY=0;entryDx=0;entryDy=0;" edge="1" parent="WIyWlLk6GJQsqaUBKTNV-1" source="vBo10i9JRaUlVTrbkvmx-1" target="vBo10i9JRaUlVTrbkvmx-2">
          <mxGeometry relative="1" as="geometry" />
        </mxCell>
        <mxCell id="vBo10i9JRaUlVTrbkvmx-1" value="MASUKAN BILANGA" style="shape=parallelogram;html=1;strokeWidth=2;perimeter=parallelogramPerimeter;whiteSpace=wrap;rounded=1;arcSize=12;size=0.23;" vertex="1" parent="WIyWlLk6GJQsqaUBKTNV-1">
          <mxGeometry x="155" y="190" width="230" height="50" as="geometry" />
        </mxCell>
        <mxCell id="vBo10i9JRaUlVTrbkvmx-2" value="BILANGAN DIBAGI 2 DENGAN OPRASI SISA BAGI" style="rounded=1;whiteSpace=wrap;html=1;absoluteArcSize=1;arcSize=14;strokeWidth=2;" vertex="1" parent="WIyWlLk6GJQsqaUBKTNV-1">
          <mxGeometry x="162.5" y="310" width="215" height="60" as="geometry" />
        </mxCell>
        <mxCell id="vBo10i9JRaUlVTrbkvmx-6" style="edgeStyle=orthogonalEdgeStyle;rounded=0;orthogonalLoop=1;jettySize=auto;html=1;" edge="1" parent="WIyWlLk6GJQsqaUBKTNV-1" source="vBo10i9JRaUlVTrbkvmx-3" target="vBo10i9JRaUlVTrbkvmx-4">
          <mxGeometry relative="1" as="geometry">
            <mxPoint x="160" y="580" as="targetPoint" />
          </mxGeometry>
        </mxCell>
        <mxCell id="vBo10i9JRaUlVTrbkvmx-7" style="edgeStyle=orthogonalEdgeStyle;rounded=0;orthogonalLoop=1;jettySize=auto;html=1;exitX=1;exitY=0.5;exitDx=0;exitDy=0;exitPerimeter=0;" edge="1" parent="WIyWlLk6GJQsqaUBKTNV-1" source="vBo10i9JRaUlVTrbkvmx-3" target="vBo10i9JRaUlVTrbkvmx-5">
          <mxGeometry relative="1" as="geometry" />
        </mxCell>
        <mxCell id="vBo10i9JRaUlVTrbkvmx-3" value="SISA&amp;nbsp; BAGI = 0 ?" style="strokeWidth=2;html=1;shape=mxgraph.flowchart.decision;whiteSpace=wrap;" vertex="1" parent="WIyWlLk6GJQsqaUBKTNV-1">
          <mxGeometry x="205" y="480" width="130" height="120" as="geometry" />
        </mxCell>
        <mxCell id="vBo10i9JRaUlVTrbkvmx-4" value="CETAK BILANGAN GENAP" style="rounded=1;whiteSpace=wrap;html=1;absoluteArcSize=1;arcSize=14;strokeWidth=2;" vertex="1" parent="WIyWlLk6GJQsqaUBKTNV-1">
          <mxGeometry x="40" y="620" width="160" height="60" as="geometry" />
        </mxCell>
        <mxCell id="vBo10i9JRaUlVTrbkvmx-5" value="CETAK BILANGAN GAJIL" style="rounded=1;whiteSpace=wrap;html=1;absoluteArcSize=1;arcSize=14;strokeWidth=2;" vertex="1" parent="WIyWlLk6GJQsqaUBKTNV-1">
          <mxGeometry x="320" y="620" width="180" height="60" as="geometry" />
        </mxCell>
        <mxCell id="vBo10i9JRaUlVTrbkvmx-8" style="edgeStyle=orthogonalEdgeStyle;rounded=0;orthogonalLoop=1;jettySize=auto;html=1;exitX=0.5;exitY=1;exitDx=0;exitDy=0;entryX=0.5;entryY=0;entryDx=0;entryDy=0;entryPerimeter=0;" edge="1" parent="WIyWlLk6GJQsqaUBKTNV-1" source="vBo10i9JRaUlVTrbkvmx-2" target="vBo10i9JRaUlVTrbkvmx-3">
          <mxGeometry relative="1" as="geometry" />
        </mxCell>
        <mxCell id="vBo10i9JRaUlVTrbkvmx-11" value="SELESAI" style="strokeWidth=2;html=1;shape=mxgraph.flowchart.start_1;whiteSpace=wrap;" vertex="1" parent="WIyWlLk6GJQsqaUBKTNV-1">
          <mxGeometry x="220" y="740" width="100" height="60" as="geometry" />
        </mxCell>
        <mxCell id="vBo10i9JRaUlVTrbkvmx-12" value="YA" style="text;html=1;align=center;verticalAlign=middle;resizable=0;points=[];autosize=1;strokeColor=none;fillColor=none;" vertex="1" parent="WIyWlLk6GJQsqaUBKTNV-1">
          <mxGeometry x="150" y="468" width="40" height="30" as="geometry" />
        </mxCell>
        <mxCell id="vBo10i9JRaUlVTrbkvmx-13" value="TIDAK" style="text;html=1;align=center;verticalAlign=middle;resizable=0;points=[];autosize=1;strokeColor=none;fillColor=none;" vertex="1" parent="WIyWlLk6GJQsqaUBKTNV-1">
          <mxGeometry x="360" y="458" width="60" height="30" as="geometry" />
        </mxCell>
        <mxCell id="vBo10i9JRaUlVTrbkvmx-14" style="edgeStyle=orthogonalEdgeStyle;rounded=0;orthogonalLoop=1;jettySize=auto;html=1;exitX=0.5;exitY=1;exitDx=0;exitDy=0;entryX=0;entryY=0.5;entryDx=0;entryDy=0;entryPerimeter=0;" edge="1" parent="WIyWlLk6GJQsqaUBKTNV-1" source="vBo10i9JRaUlVTrbkvmx-4" target="vBo10i9JRaUlVTrbkvmx-11">
          <mxGeometry relative="1" as="geometry" />
        </mxCell>
        <mxCell id="vBo10i9JRaUlVTrbkvmx-17" style="edgeStyle=orthogonalEdgeStyle;rounded=0;orthogonalLoop=1;jettySize=auto;html=1;exitX=0.5;exitY=1;exitDx=0;exitDy=0;entryX=1;entryY=0.5;entryDx=0;entryDy=0;entryPerimeter=0;" edge="1" parent="WIyWlLk6GJQsqaUBKTNV-1" source="vBo10i9JRaUlVTrbkvmx-5" target="vBo10i9JRaUlVTrbkvmx-11">
          <mxGeometry relative="1" as="geometry" />
        </mxCell>
      </root>
    </mxGraphModel>
  </diagram>
</mxfile>
